<?xml version="1.0" encoding="utf-8"?>
<!-- Generator: Adobe Illustrator 15.0.2, SVG Export Plug-In . SVG Version: 6.00 Build 0)  -->
<!DOCTYPE svg PUBLIC "-//W3C//DTD SVG 1.1//EN" "http://www.w3.org/Graphics/SVG/1.1/DTD/svg11.dtd">
<svg version="1.1" id="Layer_1" xmlns="http://www.w3.org/2000/svg" xmlns:xlink="http://www.w3.org/1999/xlink" x="0px" y="0px"
	 width="512px" height="477.731px" viewBox="0 0 512 477.731" enable-background="new 0 0 512 477.731" xml:space="preserve">
<g>
	<g>
		<path fill="#231F20" d="M508.754,62.498L449.521,3.251C447.44,1.178,444.629,0,441.683,0c-2.939,0-5.758,1.178-7.838,3.251
			L219.798,217.292l-41.709-41.696c-4.328-4.328-11.344-4.328-15.683,0l-59.243,59.247c-2.083,2.073-3.251,4.898-3.251,7.838
			s1.168,5.758,3.251,7.838l108.444,108.424c2.077,2.067,4.893,3.248,7.842,3.248c0.131,0,0.255-0.067,0.386-0.067
			c0.107,0,0.225,0.054,0.342,0.054c2.846,0,5.671-1.073,7.845-3.247L508.754,78.187C513.082,73.842,513.082,66.826,508.754,62.498z
			"/>
		<g>
			<path d="M371.209,263.778v145.399H68.564V106.525h213.43l68.574-68.564H35.683v0.047c-0.158,0-0.302-0.047-0.467-0.047
				c-19.158,0-34.666,15.316-35.132,34.357H0v371.056h0.091c0.459,18.749,15.521,33.807,34.267,34.276v0.081h0.859h0.007l0,0
				h369.331h0.007l0,0h0.858v-0.081c18.749-0.47,33.808-15.527,34.264-34.276h0.095v-248.16L371.209,263.778z"/>
		</g>
	</g>
</g>
</svg>
